<mxfile host="app.diagrams.net" modified="2023-08-02T19:13:48.922Z" agent="Mozilla/5.0 (Windows NT 10.0; Win64; x64) AppleWebKit/537.36 (KHTML, like Gecko) Chrome/114.0.0.0 Safari/537.36 OPR/100.0.0.0" etag="VVQ-rMhKmI0bswvmE5na" version="21.6.6" type="device">
  <diagram id="C5RBs43oDa-KdzZeNtuy" name="Page-1">
    <mxGraphModel dx="2679" dy="1708" grid="1" gridSize="10" guides="1" tooltips="1" connect="1" arrows="1" fold="1" page="1" pageScale="1" pageWidth="827" pageHeight="1169" math="0" shadow="0">
      <root>
        <mxCell id="WIyWlLk6GJQsqaUBKTNV-0" />
        <mxCell id="WIyWlLk6GJQsqaUBKTNV-1" parent="WIyWlLk6GJQsqaUBKTNV-0" />
        <mxCell id="uQDz-2lgoEEEBkljt1pr-6" value="" style="edgeStyle=orthogonalEdgeStyle;rounded=1;hachureGap=4;orthogonalLoop=1;jettySize=auto;html=1;fontFamily=Architects Daughter;fontSource=https%3A%2F%2Ffonts.googleapis.com%2Fcss%3Ffamily%3DArchitects%2BDaughter;fontSize=16;labelBackgroundColor=none;fontColor=default;" parent="WIyWlLk6GJQsqaUBKTNV-1" source="uQDz-2lgoEEEBkljt1pr-1" target="uQDz-2lgoEEEBkljt1pr-2" edge="1">
          <mxGeometry relative="1" as="geometry" />
        </mxCell>
        <mxCell id="uQDz-2lgoEEEBkljt1pr-1" value="START" style="ellipse;whiteSpace=wrap;html=1;rounded=1;labelBackgroundColor=none;fillColor=#20e916;strokeColor=#82b366;" parent="WIyWlLk6GJQsqaUBKTNV-1" vertex="1">
          <mxGeometry x="-792.5" y="-1169" width="135" height="60" as="geometry" />
        </mxCell>
        <mxCell id="uQDz-2lgoEEEBkljt1pr-5" value="" style="edgeStyle=orthogonalEdgeStyle;rounded=1;hachureGap=4;orthogonalLoop=1;jettySize=auto;html=1;fontFamily=Architects Daughter;fontSource=https%3A%2F%2Ffonts.googleapis.com%2Fcss%3Ffamily%3DArchitects%2BDaughter;fontSize=16;labelBackgroundColor=none;fontColor=default;" parent="WIyWlLk6GJQsqaUBKTNV-1" source="uQDz-2lgoEEEBkljt1pr-2" target="uQDz-2lgoEEEBkljt1pr-3" edge="1">
          <mxGeometry relative="1" as="geometry" />
        </mxCell>
        <mxCell id="uQDz-2lgoEEEBkljt1pr-2" value="&lt;font style=&quot;font-size: 16px;&quot;&gt;Open Dashboard&amp;nbsp;&lt;/font&gt;" style="rounded=1;whiteSpace=wrap;html=1;labelBackgroundColor=none;fillColor=#d5e8d4;strokeColor=#82b366;" parent="WIyWlLk6GJQsqaUBKTNV-1" vertex="1">
          <mxGeometry x="-870" y="-1060" width="290" height="60" as="geometry" />
        </mxCell>
        <mxCell id="uQDz-2lgoEEEBkljt1pr-8" style="edgeStyle=orthogonalEdgeStyle;rounded=0;orthogonalLoop=1;jettySize=auto;html=1;entryX=0.5;entryY=0;entryDx=0;entryDy=0;" parent="WIyWlLk6GJQsqaUBKTNV-1" source="uQDz-2lgoEEEBkljt1pr-3" target="uQDz-2lgoEEEBkljt1pr-7" edge="1">
          <mxGeometry relative="1" as="geometry" />
        </mxCell>
        <mxCell id="uQDz-2lgoEEEBkljt1pr-3" value="&lt;span style=&quot;font-size: 16px;&quot;&gt;Open Repository&lt;/span&gt;" style="rounded=1;whiteSpace=wrap;html=1;labelBackgroundColor=none;fillColor=#dae8fc;strokeColor=#6c8ebf;" parent="WIyWlLk6GJQsqaUBKTNV-1" vertex="1">
          <mxGeometry x="-870" y="-950" width="290" height="60" as="geometry" />
        </mxCell>
        <mxCell id="uQDz-2lgoEEEBkljt1pr-40" value="" style="edgeStyle=orthogonalEdgeStyle;rounded=0;orthogonalLoop=1;jettySize=auto;html=1;" parent="WIyWlLk6GJQsqaUBKTNV-1" source="uQDz-2lgoEEEBkljt1pr-7" target="uQDz-2lgoEEEBkljt1pr-10" edge="1">
          <mxGeometry relative="1" as="geometry" />
        </mxCell>
        <mxCell id="uQDz-2lgoEEEBkljt1pr-61" style="edgeStyle=orthogonalEdgeStyle;rounded=0;orthogonalLoop=1;jettySize=auto;html=1;entryX=1;entryY=0.5;entryDx=0;entryDy=0;" parent="WIyWlLk6GJQsqaUBKTNV-1" source="uQDz-2lgoEEEBkljt1pr-7" target="uQDz-2lgoEEEBkljt1pr-58" edge="1">
          <mxGeometry relative="1" as="geometry">
            <Array as="points">
              <mxPoint x="-30" y="-770" />
              <mxPoint x="-30" y="1100" />
            </Array>
          </mxGeometry>
        </mxCell>
        <mxCell id="uQDz-2lgoEEEBkljt1pr-7" value="&lt;span style=&quot;font-size: 16px;&quot;&gt;If the issue exists??&lt;/span&gt;" style="rhombus;whiteSpace=wrap;html=1;fillColor=#f8cecc;strokeColor=#b85450;rounded=0;" parent="WIyWlLk6GJQsqaUBKTNV-1" vertex="1">
          <mxGeometry x="-868.25" y="-840" width="286.5" height="140" as="geometry" />
        </mxCell>
        <mxCell id="uQDz-2lgoEEEBkljt1pr-9" value="No" style="text;html=1;strokeColor=none;fillColor=none;align=center;verticalAlign=middle;whiteSpace=wrap;rounded=0;" parent="WIyWlLk6GJQsqaUBKTNV-1" vertex="1">
          <mxGeometry x="-595" y="-830" width="60" height="30" as="geometry" />
        </mxCell>
        <mxCell id="uQDz-2lgoEEEBkljt1pr-41" value="" style="edgeStyle=orthogonalEdgeStyle;rounded=0;orthogonalLoop=1;jettySize=auto;html=1;" parent="WIyWlLk6GJQsqaUBKTNV-1" source="uQDz-2lgoEEEBkljt1pr-10" target="uQDz-2lgoEEEBkljt1pr-11" edge="1">
          <mxGeometry relative="1" as="geometry" />
        </mxCell>
        <mxCell id="uQDz-2lgoEEEBkljt1pr-10" value="&lt;span style=&quot;font-size: 16px;&quot;&gt;Describe the issue title description and label it.&lt;/span&gt;" style="rounded=1;whiteSpace=wrap;html=1;labelBackgroundColor=none;fillColor=#dae8fc;strokeColor=#6c8ebf;" parent="WIyWlLk6GJQsqaUBKTNV-1" vertex="1">
          <mxGeometry x="-871.75" y="-650" width="291.75" height="60" as="geometry" />
        </mxCell>
        <mxCell id="uQDz-2lgoEEEBkljt1pr-42" value="" style="edgeStyle=orthogonalEdgeStyle;rounded=0;orthogonalLoop=1;jettySize=auto;html=1;" parent="WIyWlLk6GJQsqaUBKTNV-1" source="uQDz-2lgoEEEBkljt1pr-11" target="uQDz-2lgoEEEBkljt1pr-12" edge="1">
          <mxGeometry relative="1" as="geometry" />
        </mxCell>
        <mxCell id="uQDz-2lgoEEEBkljt1pr-11" value="&lt;span style=&quot;font-size: 16px;&quot;&gt;Assign the issue for basic review.&lt;/span&gt;" style="rounded=1;whiteSpace=wrap;html=1;labelBackgroundColor=none;fillColor=#dae8fc;strokeColor=#6c8ebf;" parent="WIyWlLk6GJQsqaUBKTNV-1" vertex="1">
          <mxGeometry x="-870" y="-540" width="290" height="60" as="geometry" />
        </mxCell>
        <mxCell id="uQDz-2lgoEEEBkljt1pr-43" value="" style="edgeStyle=orthogonalEdgeStyle;rounded=0;orthogonalLoop=1;jettySize=auto;html=1;" parent="WIyWlLk6GJQsqaUBKTNV-1" source="uQDz-2lgoEEEBkljt1pr-12" target="uQDz-2lgoEEEBkljt1pr-14" edge="1">
          <mxGeometry relative="1" as="geometry" />
        </mxCell>
        <mxCell id="uQDz-2lgoEEEBkljt1pr-12" value="&lt;span style=&quot;font-size: 16px;&quot;&gt;To other team member for basic review.&lt;br&gt;&lt;/span&gt;" style="rounded=1;whiteSpace=wrap;html=1;labelBackgroundColor=none;fillColor=#dae8fc;strokeColor=#6c8ebf;" parent="WIyWlLk6GJQsqaUBKTNV-1" vertex="1">
          <mxGeometry x="-870.88" y="-430" width="290" height="60" as="geometry" />
        </mxCell>
        <mxCell id="uQDz-2lgoEEEBkljt1pr-47" value="" style="edgeStyle=orthogonalEdgeStyle;rounded=0;orthogonalLoop=1;jettySize=auto;html=1;" parent="WIyWlLk6GJQsqaUBKTNV-1" source="uQDz-2lgoEEEBkljt1pr-13" target="uQDz-2lgoEEEBkljt1pr-15" edge="1">
          <mxGeometry relative="1" as="geometry" />
        </mxCell>
        <mxCell id="uQDz-2lgoEEEBkljt1pr-13" value="&lt;span style=&quot;font-size: 16px;&quot;&gt;Team lead will look through it&amp;nbsp;thoroughly.&lt;/span&gt;" style="rounded=1;whiteSpace=wrap;html=1;labelBackgroundColor=none;fillColor=#dae8fc;strokeColor=#6c8ebf;" parent="WIyWlLk6GJQsqaUBKTNV-1" vertex="1">
          <mxGeometry x="-871.75" y="-130" width="290" height="60" as="geometry" />
        </mxCell>
        <mxCell id="uQDz-2lgoEEEBkljt1pr-45" value="" style="edgeStyle=orthogonalEdgeStyle;rounded=0;orthogonalLoop=1;jettySize=auto;html=1;" parent="WIyWlLk6GJQsqaUBKTNV-1" source="uQDz-2lgoEEEBkljt1pr-14" target="uQDz-2lgoEEEBkljt1pr-13" edge="1">
          <mxGeometry relative="1" as="geometry" />
        </mxCell>
        <mxCell id="uQDz-2lgoEEEBkljt1pr-46" style="edgeStyle=orthogonalEdgeStyle;rounded=0;orthogonalLoop=1;jettySize=auto;html=1;entryX=1;entryY=0.5;entryDx=0;entryDy=0;" parent="WIyWlLk6GJQsqaUBKTNV-1" source="uQDz-2lgoEEEBkljt1pr-14" target="uQDz-2lgoEEEBkljt1pr-10" edge="1">
          <mxGeometry relative="1" as="geometry">
            <Array as="points">
              <mxPoint x="-360" y="-250" />
              <mxPoint x="-360" y="-620" />
            </Array>
          </mxGeometry>
        </mxCell>
        <mxCell id="uQDz-2lgoEEEBkljt1pr-14" value="&lt;span style=&quot;font-size: 16px;&quot;&gt;Review the issue requirements&lt;br&gt;&amp;nbsp;are enough&lt;/span&gt;" style="rhombus;whiteSpace=wrap;html=1;fillColor=#f8cecc;strokeColor=#b85450;rounded=0;align=center;" parent="WIyWlLk6GJQsqaUBKTNV-1" vertex="1">
          <mxGeometry x="-875.88" y="-320" width="300" height="140" as="geometry" />
        </mxCell>
        <mxCell id="uQDz-2lgoEEEBkljt1pr-48" value="" style="edgeStyle=orthogonalEdgeStyle;rounded=0;orthogonalLoop=1;jettySize=auto;html=1;" parent="WIyWlLk6GJQsqaUBKTNV-1" source="uQDz-2lgoEEEBkljt1pr-15" target="uQDz-2lgoEEEBkljt1pr-16" edge="1">
          <mxGeometry relative="1" as="geometry" />
        </mxCell>
        <mxCell id="uQDz-2lgoEEEBkljt1pr-50" value="" style="edgeStyle=orthogonalEdgeStyle;rounded=0;orthogonalLoop=1;jettySize=auto;html=1;" parent="WIyWlLk6GJQsqaUBKTNV-1" source="uQDz-2lgoEEEBkljt1pr-15" target="uQDz-2lgoEEEBkljt1pr-18" edge="1">
          <mxGeometry relative="1" as="geometry" />
        </mxCell>
        <mxCell id="uQDz-2lgoEEEBkljt1pr-15" value="&lt;span style=&quot;font-size: 16px;&quot;&gt;Issue is assigned to the particular&lt;br&gt;&amp;nbsp;person by lead or not?&lt;/span&gt;" style="rhombus;whiteSpace=wrap;html=1;fillColor=#f8cecc;strokeColor=#b85450;rounded=0;align=center;" parent="WIyWlLk6GJQsqaUBKTNV-1" vertex="1">
          <mxGeometry x="-876.75" width="300" height="140" as="geometry" />
        </mxCell>
        <mxCell id="uQDz-2lgoEEEBkljt1pr-49" style="edgeStyle=orthogonalEdgeStyle;rounded=0;orthogonalLoop=1;jettySize=auto;html=1;entryX=1;entryY=0.5;entryDx=0;entryDy=0;" parent="WIyWlLk6GJQsqaUBKTNV-1" source="uQDz-2lgoEEEBkljt1pr-16" target="uQDz-2lgoEEEBkljt1pr-13" edge="1">
          <mxGeometry relative="1" as="geometry">
            <Array as="points">
              <mxPoint x="-315" y="-100" />
            </Array>
          </mxGeometry>
        </mxCell>
        <mxCell id="uQDz-2lgoEEEBkljt1pr-16" value="&lt;span style=&quot;font-size: 16px;&quot;&gt;Refer to the team lead.&amp;nbsp;&lt;/span&gt;" style="rounded=1;whiteSpace=wrap;html=1;labelBackgroundColor=none;fillColor=#dae8fc;strokeColor=#6c8ebf;" parent="WIyWlLk6GJQsqaUBKTNV-1" vertex="1">
          <mxGeometry x="-460" y="40" width="290" height="60" as="geometry" />
        </mxCell>
        <mxCell id="uQDz-2lgoEEEBkljt1pr-51" value="" style="edgeStyle=orthogonalEdgeStyle;rounded=0;orthogonalLoop=1;jettySize=auto;html=1;" parent="WIyWlLk6GJQsqaUBKTNV-1" source="uQDz-2lgoEEEBkljt1pr-18" target="uQDz-2lgoEEEBkljt1pr-19" edge="1">
          <mxGeometry relative="1" as="geometry" />
        </mxCell>
        <mxCell id="uQDz-2lgoEEEBkljt1pr-18" value="&lt;span style=&quot;font-size: 16px;&quot;&gt;Assigned person by lead look into it.&lt;/span&gt;" style="rounded=1;whiteSpace=wrap;html=1;labelBackgroundColor=none;fillColor=#dae8fc;strokeColor=#6c8ebf;" parent="WIyWlLk6GJQsqaUBKTNV-1" vertex="1">
          <mxGeometry x="-870.88" y="220" width="290" height="60" as="geometry" />
        </mxCell>
        <mxCell id="uQDz-2lgoEEEBkljt1pr-52" style="edgeStyle=orthogonalEdgeStyle;rounded=0;orthogonalLoop=1;jettySize=auto;html=1;entryX=0.5;entryY=0;entryDx=0;entryDy=0;" parent="WIyWlLk6GJQsqaUBKTNV-1" source="uQDz-2lgoEEEBkljt1pr-19" target="uQDz-2lgoEEEBkljt1pr-21" edge="1">
          <mxGeometry relative="1" as="geometry" />
        </mxCell>
        <mxCell id="uQDz-2lgoEEEBkljt1pr-53" style="edgeStyle=orthogonalEdgeStyle;rounded=0;orthogonalLoop=1;jettySize=auto;html=1;entryX=0.5;entryY=0;entryDx=0;entryDy=0;" parent="WIyWlLk6GJQsqaUBKTNV-1" source="uQDz-2lgoEEEBkljt1pr-19" target="uQDz-2lgoEEEBkljt1pr-27" edge="1">
          <mxGeometry relative="1" as="geometry" />
        </mxCell>
        <mxCell id="uQDz-2lgoEEEBkljt1pr-19" value="&lt;span style=&quot;font-size: 16px;&quot;&gt;Information by team is enough &lt;br&gt;to work for.&lt;/span&gt;" style="rhombus;whiteSpace=wrap;html=1;fillColor=#f8cecc;strokeColor=#b85450;rounded=0;align=center;" parent="WIyWlLk6GJQsqaUBKTNV-1" vertex="1">
          <mxGeometry x="-876.75" y="380" width="300" height="140" as="geometry" />
        </mxCell>
        <mxCell id="uQDz-2lgoEEEBkljt1pr-20" value="&lt;font style=&quot;font-size: 16px;&quot;&gt;No&lt;/font&gt;" style="text;html=1;strokeColor=none;fillColor=none;align=center;verticalAlign=middle;whiteSpace=wrap;rounded=0;" parent="WIyWlLk6GJQsqaUBKTNV-1" vertex="1">
          <mxGeometry x="-520" y="240" width="60" height="30" as="geometry" />
        </mxCell>
        <mxCell id="uQDz-2lgoEEEBkljt1pr-25" value="" style="edgeStyle=orthogonalEdgeStyle;rounded=0;orthogonalLoop=1;jettySize=auto;html=1;" parent="WIyWlLk6GJQsqaUBKTNV-1" source="uQDz-2lgoEEEBkljt1pr-21" target="uQDz-2lgoEEEBkljt1pr-22" edge="1">
          <mxGeometry relative="1" as="geometry" />
        </mxCell>
        <mxCell id="uQDz-2lgoEEEBkljt1pr-21" value="&lt;span style=&quot;font-size: 16px;&quot;&gt;Assigned Developer will work on it.&lt;/span&gt;" style="rounded=1;whiteSpace=wrap;html=1;labelBackgroundColor=none;fillColor=#dae8fc;strokeColor=#6c8ebf;" parent="WIyWlLk6GJQsqaUBKTNV-1" vertex="1">
          <mxGeometry x="-1300" y="660" width="290" height="60" as="geometry" />
        </mxCell>
        <mxCell id="uQDz-2lgoEEEBkljt1pr-26" value="" style="edgeStyle=orthogonalEdgeStyle;rounded=0;orthogonalLoop=1;jettySize=auto;html=1;" parent="WIyWlLk6GJQsqaUBKTNV-1" source="uQDz-2lgoEEEBkljt1pr-22" target="uQDz-2lgoEEEBkljt1pr-23" edge="1">
          <mxGeometry relative="1" as="geometry" />
        </mxCell>
        <mxCell id="uQDz-2lgoEEEBkljt1pr-22" value="&lt;span style=&quot;font-size: 16px;&quot;&gt;Make changes in code.&lt;/span&gt;" style="rounded=1;whiteSpace=wrap;html=1;labelBackgroundColor=none;fillColor=#dae8fc;strokeColor=#6c8ebf;" parent="WIyWlLk6GJQsqaUBKTNV-1" vertex="1">
          <mxGeometry x="-1300" y="760" width="290" height="60" as="geometry" />
        </mxCell>
        <mxCell id="uQDz-2lgoEEEBkljt1pr-56" style="edgeStyle=orthogonalEdgeStyle;rounded=0;orthogonalLoop=1;jettySize=auto;html=1;entryX=0;entryY=0.5;entryDx=0;entryDy=0;" parent="WIyWlLk6GJQsqaUBKTNV-1" source="uQDz-2lgoEEEBkljt1pr-23" target="uQDz-2lgoEEEBkljt1pr-33" edge="1">
          <mxGeometry relative="1" as="geometry" />
        </mxCell>
        <mxCell id="uQDz-2lgoEEEBkljt1pr-23" value="&lt;span style=&quot;font-size: 16px;&quot;&gt;Commit Changes/Pull request submitted.&lt;/span&gt;" style="rounded=1;whiteSpace=wrap;html=1;labelBackgroundColor=none;fillColor=#dae8fc;strokeColor=#6c8ebf;" parent="WIyWlLk6GJQsqaUBKTNV-1" vertex="1">
          <mxGeometry x="-1300" y="880" width="290" height="60" as="geometry" />
        </mxCell>
        <mxCell id="uQDz-2lgoEEEBkljt1pr-54" style="edgeStyle=orthogonalEdgeStyle;rounded=0;orthogonalLoop=1;jettySize=auto;html=1;entryX=1;entryY=0.5;entryDx=0;entryDy=0;" parent="WIyWlLk6GJQsqaUBKTNV-1" source="uQDz-2lgoEEEBkljt1pr-27" target="uQDz-2lgoEEEBkljt1pr-21" edge="1">
          <mxGeometry relative="1" as="geometry">
            <Array as="points">
              <mxPoint x="-290" y="690" />
            </Array>
          </mxGeometry>
        </mxCell>
        <mxCell id="uQDz-2lgoEEEBkljt1pr-55" style="edgeStyle=orthogonalEdgeStyle;rounded=0;orthogonalLoop=1;jettySize=auto;html=1;entryX=1;entryY=0.5;entryDx=0;entryDy=0;" parent="WIyWlLk6GJQsqaUBKTNV-1" source="uQDz-2lgoEEEBkljt1pr-27" target="uQDz-2lgoEEEBkljt1pr-16" edge="1">
          <mxGeometry relative="1" as="geometry">
            <Array as="points">
              <mxPoint x="-50" y="590" />
              <mxPoint x="-50" y="70" />
            </Array>
          </mxGeometry>
        </mxCell>
        <mxCell id="uQDz-2lgoEEEBkljt1pr-27" value="&lt;span style=&quot;font-size: 16px;&quot;&gt;Need more discussions on &lt;br&gt;requirements/issue.&lt;/span&gt;" style="rhombus;whiteSpace=wrap;html=1;fillColor=#f8cecc;strokeColor=#b85450;rounded=0;align=center;" parent="WIyWlLk6GJQsqaUBKTNV-1" vertex="1">
          <mxGeometry x="-440" y="520" width="300" height="140" as="geometry" />
        </mxCell>
        <mxCell id="uQDz-2lgoEEEBkljt1pr-30" value="&lt;font style=&quot;font-size: 16px;&quot;&gt;No&lt;/font&gt;" style="text;html=1;strokeColor=none;fillColor=none;align=center;verticalAlign=middle;whiteSpace=wrap;rounded=0;" parent="WIyWlLk6GJQsqaUBKTNV-1" vertex="1">
          <mxGeometry x="-400" y="470" width="60" height="30" as="geometry" />
        </mxCell>
        <mxCell id="uQDz-2lgoEEEBkljt1pr-57" value="" style="edgeStyle=orthogonalEdgeStyle;rounded=0;orthogonalLoop=1;jettySize=auto;html=1;" parent="WIyWlLk6GJQsqaUBKTNV-1" source="uQDz-2lgoEEEBkljt1pr-33" target="uQDz-2lgoEEEBkljt1pr-39" edge="1">
          <mxGeometry relative="1" as="geometry" />
        </mxCell>
        <mxCell id="uQDz-2lgoEEEBkljt1pr-60" style="edgeStyle=orthogonalEdgeStyle;rounded=0;orthogonalLoop=1;jettySize=auto;html=1;entryX=0.5;entryY=0;entryDx=0;entryDy=0;" parent="WIyWlLk6GJQsqaUBKTNV-1" source="uQDz-2lgoEEEBkljt1pr-33" target="uQDz-2lgoEEEBkljt1pr-58" edge="1">
          <mxGeometry relative="1" as="geometry" />
        </mxCell>
        <mxCell id="uQDz-2lgoEEEBkljt1pr-33" value="&lt;span style=&quot;font-size: 16px;&quot;&gt;Pull Request Status??&lt;/span&gt;" style="rhombus;whiteSpace=wrap;html=1;fillColor=#f8cecc;strokeColor=#b85450;rounded=0;align=center;" parent="WIyWlLk6GJQsqaUBKTNV-1" vertex="1">
          <mxGeometry x="-835" y="840" width="300" height="140" as="geometry" />
        </mxCell>
        <mxCell id="uQDz-2lgoEEEBkljt1pr-35" value="&lt;font style=&quot;font-size: 16px;&quot;&gt;No&lt;/font&gt;" style="text;html=1;strokeColor=none;fillColor=none;align=center;verticalAlign=middle;whiteSpace=wrap;rounded=0;" parent="WIyWlLk6GJQsqaUBKTNV-1" vertex="1">
          <mxGeometry x="-290" y="660" width="60" height="30" as="geometry" />
        </mxCell>
        <mxCell id="uQDz-2lgoEEEBkljt1pr-37" value="&lt;font style=&quot;font-size: 16px;&quot;&gt;YES&lt;/font&gt;" style="text;html=1;strokeColor=none;fillColor=none;align=center;verticalAlign=middle;whiteSpace=wrap;rounded=0;" parent="WIyWlLk6GJQsqaUBKTNV-1" vertex="1">
          <mxGeometry x="-140" y="610" width="60" height="30" as="geometry" />
        </mxCell>
        <mxCell id="uQDz-2lgoEEEBkljt1pr-59" style="edgeStyle=orthogonalEdgeStyle;rounded=0;orthogonalLoop=1;jettySize=auto;html=1;entryX=0;entryY=0.5;entryDx=0;entryDy=0;" parent="WIyWlLk6GJQsqaUBKTNV-1" source="uQDz-2lgoEEEBkljt1pr-39" target="uQDz-2lgoEEEBkljt1pr-58" edge="1">
          <mxGeometry relative="1" as="geometry" />
        </mxCell>
        <mxCell id="uQDz-2lgoEEEBkljt1pr-39" value="&lt;span style=&quot;font-size: 16px;&quot;&gt;Issue resolved successfully.&lt;/span&gt;" style="rounded=1;whiteSpace=wrap;html=1;labelBackgroundColor=none;fillColor=#dae8fc;strokeColor=#6c8ebf;" parent="WIyWlLk6GJQsqaUBKTNV-1" vertex="1">
          <mxGeometry x="-830" y="1070" width="290" height="60" as="geometry" />
        </mxCell>
        <mxCell id="uQDz-2lgoEEEBkljt1pr-44" value="NO" style="text;html=1;strokeColor=none;fillColor=none;align=center;verticalAlign=middle;whiteSpace=wrap;rounded=0;" parent="WIyWlLk6GJQsqaUBKTNV-1" vertex="1">
          <mxGeometry x="-510" y="-320" width="60" height="30" as="geometry" />
        </mxCell>
        <mxCell id="uQDz-2lgoEEEBkljt1pr-58" value="END" style="ellipse;whiteSpace=wrap;html=1;fillColor=#3AE817;strokeColor=#5ddb14;" parent="WIyWlLk6GJQsqaUBKTNV-1" vertex="1">
          <mxGeometry x="-310" y="1060" width="120" height="80" as="geometry" />
        </mxCell>
        <mxCell id="YnTICi8ui2n6Fjm0uLqH-1" value="&lt;font style=&quot;font-size: 16px;&quot;&gt;2&lt;/font&gt;" style="text;html=1;strokeColor=none;fillColor=none;align=center;verticalAlign=middle;whiteSpace=wrap;rounded=0;" vertex="1" parent="WIyWlLk6GJQsqaUBKTNV-1">
          <mxGeometry x="-780" y="-990" width="60" height="40" as="geometry" />
        </mxCell>
        <mxCell id="YnTICi8ui2n6Fjm0uLqH-2" value="&lt;font style=&quot;font-size: 16px;&quot;&gt;3&lt;/font&gt;" style="text;html=1;strokeColor=none;fillColor=none;align=center;verticalAlign=middle;whiteSpace=wrap;rounded=0;" vertex="1" parent="WIyWlLk6GJQsqaUBKTNV-1">
          <mxGeometry x="-780" y="-880" width="60" height="40" as="geometry" />
        </mxCell>
        <mxCell id="YnTICi8ui2n6Fjm0uLqH-3" value="&lt;font style=&quot;font-size: 16px;&quot;&gt;1&lt;/font&gt;" style="text;html=1;strokeColor=none;fillColor=none;align=center;verticalAlign=middle;whiteSpace=wrap;rounded=0;" vertex="1" parent="WIyWlLk6GJQsqaUBKTNV-1">
          <mxGeometry x="-780" y="-1100" width="60" height="40" as="geometry" />
        </mxCell>
        <mxCell id="YnTICi8ui2n6Fjm0uLqH-4" value="&lt;font style=&quot;font-size: 16px;&quot;&gt;4&lt;/font&gt;" style="text;html=1;strokeColor=none;fillColor=none;align=center;verticalAlign=middle;whiteSpace=wrap;rounded=0;" vertex="1" parent="WIyWlLk6GJQsqaUBKTNV-1">
          <mxGeometry x="-500" y="-820" width="60" height="40" as="geometry" />
        </mxCell>
        <mxCell id="YnTICi8ui2n6Fjm0uLqH-5" value="&lt;span style=&quot;font-size: 16px;&quot;&gt;5&lt;/span&gt;" style="text;html=1;strokeColor=none;fillColor=none;align=center;verticalAlign=middle;whiteSpace=wrap;rounded=0;" vertex="1" parent="WIyWlLk6GJQsqaUBKTNV-1">
          <mxGeometry x="-780" y="-700" width="60" height="40" as="geometry" />
        </mxCell>
        <mxCell id="YnTICi8ui2n6Fjm0uLqH-6" value="&lt;font style=&quot;font-size: 16px;&quot;&gt;6&lt;/font&gt;" style="text;html=1;strokeColor=none;fillColor=none;align=center;verticalAlign=middle;whiteSpace=wrap;rounded=0;" vertex="1" parent="WIyWlLk6GJQsqaUBKTNV-1">
          <mxGeometry x="-780" y="-584" width="60" height="40" as="geometry" />
        </mxCell>
        <mxCell id="YnTICi8ui2n6Fjm0uLqH-7" value="&lt;font style=&quot;font-size: 16px;&quot;&gt;7&lt;/font&gt;" style="text;html=1;strokeColor=none;fillColor=none;align=center;verticalAlign=middle;whiteSpace=wrap;rounded=0;" vertex="1" parent="WIyWlLk6GJQsqaUBKTNV-1">
          <mxGeometry x="-780" y="-470" width="60" height="40" as="geometry" />
        </mxCell>
        <mxCell id="YnTICi8ui2n6Fjm0uLqH-8" value="&lt;font style=&quot;font-size: 16px;&quot;&gt;8&lt;/font&gt;" style="text;html=1;strokeColor=none;fillColor=none;align=center;verticalAlign=middle;whiteSpace=wrap;rounded=0;" vertex="1" parent="WIyWlLk6GJQsqaUBKTNV-1">
          <mxGeometry x="-790" y="-360" width="60" height="40" as="geometry" />
        </mxCell>
        <mxCell id="YnTICi8ui2n6Fjm0uLqH-10" value="&lt;font style=&quot;font-size: 16px;&quot;&gt;9&lt;/font&gt;" style="text;html=1;strokeColor=none;fillColor=none;align=center;verticalAlign=middle;whiteSpace=wrap;rounded=0;" vertex="1" parent="WIyWlLk6GJQsqaUBKTNV-1">
          <mxGeometry x="-560" y="-300" width="60" height="40" as="geometry" />
        </mxCell>
        <mxCell id="YnTICi8ui2n6Fjm0uLqH-11" value="&lt;font style=&quot;font-size: 16px;&quot;&gt;10&lt;/font&gt;" style="text;html=1;strokeColor=none;fillColor=none;align=center;verticalAlign=middle;whiteSpace=wrap;rounded=0;" vertex="1" parent="WIyWlLk6GJQsqaUBKTNV-1">
          <mxGeometry x="-800" y="-180" width="60" height="40" as="geometry" />
        </mxCell>
        <mxCell id="YnTICi8ui2n6Fjm0uLqH-12" value="&lt;font style=&quot;font-size: 16px;&quot;&gt;11&lt;/font&gt;" style="text;html=1;strokeColor=none;fillColor=none;align=center;verticalAlign=middle;whiteSpace=wrap;rounded=0;" vertex="1" parent="WIyWlLk6GJQsqaUBKTNV-1">
          <mxGeometry x="-800" y="-40" width="60" height="40" as="geometry" />
        </mxCell>
        <mxCell id="YnTICi8ui2n6Fjm0uLqH-13" value="&lt;font style=&quot;font-size: 16px;&quot;&gt;12&lt;/font&gt;" style="text;html=1;strokeColor=none;fillColor=none;align=center;verticalAlign=middle;whiteSpace=wrap;rounded=0;" vertex="1" parent="WIyWlLk6GJQsqaUBKTNV-1">
          <mxGeometry x="-560" y="20" width="60" height="40" as="geometry" />
        </mxCell>
        <mxCell id="YnTICi8ui2n6Fjm0uLqH-14" value="&lt;font style=&quot;font-size: 16px;&quot;&gt;13&lt;/font&gt;" style="text;html=1;strokeColor=none;fillColor=none;align=center;verticalAlign=middle;whiteSpace=wrap;rounded=0;" vertex="1" parent="WIyWlLk6GJQsqaUBKTNV-1">
          <mxGeometry x="-370" y="-10" width="60" height="40" as="geometry" />
        </mxCell>
        <mxCell id="YnTICi8ui2n6Fjm0uLqH-16" value="&lt;font style=&quot;font-size: 16px;&quot;&gt;14&lt;/font&gt;" style="text;html=1;strokeColor=none;fillColor=none;align=center;verticalAlign=middle;whiteSpace=wrap;rounded=0;" vertex="1" parent="WIyWlLk6GJQsqaUBKTNV-1">
          <mxGeometry x="-792.5" y="160" width="60" height="40" as="geometry" />
        </mxCell>
        <mxCell id="YnTICi8ui2n6Fjm0uLqH-17" value="&lt;font style=&quot;font-size: 16px;&quot;&gt;15&lt;/font&gt;" style="text;html=1;strokeColor=none;fillColor=none;align=center;verticalAlign=middle;whiteSpace=wrap;rounded=0;" vertex="1" parent="WIyWlLk6GJQsqaUBKTNV-1">
          <mxGeometry x="-790" y="300" width="60" height="40" as="geometry" />
        </mxCell>
        <mxCell id="YnTICi8ui2n6Fjm0uLqH-18" value="&lt;font style=&quot;font-size: 16px;&quot;&gt;19&lt;/font&gt;" style="text;html=1;strokeColor=none;fillColor=none;align=center;verticalAlign=middle;whiteSpace=wrap;rounded=0;" vertex="1" parent="WIyWlLk6GJQsqaUBKTNV-1">
          <mxGeometry x="-980" y="400" width="60" height="40" as="geometry" />
        </mxCell>
        <mxCell id="YnTICi8ui2n6Fjm0uLqH-19" value="&lt;font style=&quot;font-size: 16px;&quot;&gt;16&lt;/font&gt;" style="text;html=1;strokeColor=none;fillColor=none;align=center;verticalAlign=middle;whiteSpace=wrap;rounded=0;" vertex="1" parent="WIyWlLk6GJQsqaUBKTNV-1">
          <mxGeometry x="-400" y="405" width="60" height="40" as="geometry" />
        </mxCell>
        <mxCell id="YnTICi8ui2n6Fjm0uLqH-20" value="&lt;font style=&quot;font-size: 16px;&quot;&gt;17&lt;/font&gt;" style="text;html=1;strokeColor=none;fillColor=none;align=center;verticalAlign=middle;whiteSpace=wrap;rounded=0;" vertex="1" parent="WIyWlLk6GJQsqaUBKTNV-1">
          <mxGeometry x="-460" y="640" width="60" height="40" as="geometry" />
        </mxCell>
        <mxCell id="YnTICi8ui2n6Fjm0uLqH-21" value="&lt;font style=&quot;font-size: 16px;&quot;&gt;18&lt;/font&gt;" style="text;html=1;strokeColor=none;fillColor=none;align=center;verticalAlign=middle;whiteSpace=wrap;rounded=0;" vertex="1" parent="WIyWlLk6GJQsqaUBKTNV-1">
          <mxGeometry x="-140" y="545" width="60" height="40" as="geometry" />
        </mxCell>
        <mxCell id="YnTICi8ui2n6Fjm0uLqH-22" value="&lt;font style=&quot;font-size: 16px;&quot;&gt;20&lt;/font&gt;" style="text;html=1;strokeColor=none;fillColor=none;align=center;verticalAlign=middle;whiteSpace=wrap;rounded=0;" vertex="1" parent="WIyWlLk6GJQsqaUBKTNV-1">
          <mxGeometry x="-1230" y="720" width="60" height="40" as="geometry" />
        </mxCell>
        <mxCell id="YnTICi8ui2n6Fjm0uLqH-23" value="&lt;font style=&quot;font-size: 16px;&quot;&gt;22&lt;/font&gt;" style="text;html=1;strokeColor=none;fillColor=none;align=center;verticalAlign=middle;whiteSpace=wrap;rounded=0;" vertex="1" parent="WIyWlLk6GJQsqaUBKTNV-1">
          <mxGeometry x="-1230" y="830" width="60" height="40" as="geometry" />
        </mxCell>
        <mxCell id="YnTICi8ui2n6Fjm0uLqH-24" value="&lt;font style=&quot;font-size: 16px;&quot;&gt;23&lt;/font&gt;" style="text;html=1;strokeColor=none;fillColor=none;align=center;verticalAlign=middle;whiteSpace=wrap;rounded=0;" vertex="1" parent="WIyWlLk6GJQsqaUBKTNV-1">
          <mxGeometry x="-931.75" y="870" width="60" height="40" as="geometry" />
        </mxCell>
        <mxCell id="YnTICi8ui2n6Fjm0uLqH-25" value="&lt;font style=&quot;font-size: 16px;&quot;&gt;25&lt;/font&gt;" style="text;html=1;strokeColor=none;fillColor=none;align=center;verticalAlign=middle;whiteSpace=wrap;rounded=0;" vertex="1" parent="WIyWlLk6GJQsqaUBKTNV-1">
          <mxGeometry x="-755" y="1010" width="60" height="40" as="geometry" />
        </mxCell>
        <mxCell id="YnTICi8ui2n6Fjm0uLqH-26" value="&lt;font style=&quot;font-size: 16px;&quot;&gt;24&lt;/font&gt;" style="text;html=1;strokeColor=none;fillColor=none;align=center;verticalAlign=middle;whiteSpace=wrap;rounded=0;" vertex="1" parent="WIyWlLk6GJQsqaUBKTNV-1">
          <mxGeometry x="-470" y="860" width="60" height="40" as="geometry" />
        </mxCell>
        <mxCell id="YnTICi8ui2n6Fjm0uLqH-27" value="&lt;font style=&quot;font-size: 16px;&quot;&gt;26&lt;/font&gt;" style="text;html=1;strokeColor=none;fillColor=none;align=center;verticalAlign=middle;whiteSpace=wrap;rounded=0;" vertex="1" parent="WIyWlLk6GJQsqaUBKTNV-1">
          <mxGeometry x="-413" y="1050" width="60" height="40" as="geometry" />
        </mxCell>
      </root>
    </mxGraphModel>
  </diagram>
</mxfile>
